<svg width="20" height="20" viewBox="0 0 20 20" fill="none" xmlns="http://www.w3.org/2000/svg">
<path d="M3 9H17V11H3V9ZM10.002 2C9.47157 1.99947 8.96265 2.20968 8.5872 2.58437C8.21175 2.95907 8.00053 3.46757 8 3.998C7.99947 4.52843 8.20967 5.03735 8.58437 5.4128C8.95907 5.78825 9.46757 5.99947 9.998 6C10.5284 6.00053 11.0374 5.79033 11.4128 5.41563C11.7882 5.04093 11.9995 4.53243 12 4.002C12.0005 3.47157 11.7903 2.96265 11.4156 2.5872C11.0409 2.21175 10.5324 2.00053 10.002 2ZM10.002 14C9.47157 13.9995 8.96265 14.2097 8.5872 14.5844C8.21175 14.9591 8.00053 15.4676 8 15.998C7.99947 16.5284 8.20967 17.0374 8.58437 17.4128C8.95907 17.7882 9.46757 17.9995 9.998 18C10.5284 18.0005 11.0374 17.7903 11.4128 17.4156C11.7882 17.0409 11.9995 16.5324 12 16.002C12.0005 15.4716 11.7903 14.9626 11.4156 14.5872C11.0409 14.2118 10.5324 14.0005 10.002 14Z" fill="#EC3A7A"/>
</svg>
