<svg width="24" height="24" viewBox="0 0 24 24" fill="none" xmlns="http://www.w3.org/2000/svg">
<path fill-rule="evenodd" clip-rule="evenodd" d="M4.1802 2H8.8198L10.8198 12H13V9.67427L22 12.2457V22H2V12.901L4.1802 2ZM15 12.3257V14H4V20H20V13.7543L15 12.3257ZM4.2198 12H8.7802L7.1802 4H5.8198L4.2198 12Z" fill="#EC3A7A"/>
<path fill-rule="evenodd" clip-rule="evenodd" d="M18 16V21H16V16H18Z" fill="#EC3A7A"/>
<path fill-rule="evenodd" clip-rule="evenodd" d="M6 16L14 16V18H6L6 16Z" fill="#EC3A7A"/>
<path fill-rule="evenodd" clip-rule="evenodd" d="M12 6L20 6V8L12 8V6Z" fill="#EC3A7A"/>
<path fill-rule="evenodd" clip-rule="evenodd" d="M12 2L16 2V4L12 4V2Z" fill="#EC3A7A"/>
</svg>
