<svg width="24" height="24" viewBox="0 0 24 24" fill="none" xmlns="http://www.w3.org/2000/svg">
<path fill-rule="evenodd" clip-rule="evenodd" d="M19.5 3V18H22V20H17.5V3H19.5ZM10 5.5H16V19C16 20.6569 14.6569 22 13 22C11.6938 22 10.5825 21.1652 10.1707 20H7.82929C7.41746 21.1652 6.30622 22 5 22C3.34315 22 2 20.6569 2 19V10H7.61803L9.11803 13H10V5.5ZM7.82929 18H10.1707C10.5825 16.8348 11.6938 16 13 16C13.3506 16 13.6872 16.0602 14 16.1707V7.5H12V15H7.88197L6.38197 12H4V16.1707C4.31278 16.0602 4.64936 16 5 16C6.30622 16 7.41746 16.8348 7.82929 18ZM13 20C12.4477 20 12 19.5523 12 19C12 18.4477 12.4477 18 13 18C13.5523 18 14 18.4477 14 19C14 19.5523 13.5523 20 13 20ZM5 20C4.44772 20 4 19.5523 4 19C4 18.4477 4.44772 18 5 18C5.55228 18 6 18.4477 6 19C6 19.5523 5.55228 20 5 20Z" fill="#EC3A7A"/>
</svg>
