<svg width="28" height="28" viewBox="0 0 28 28" fill="none" xmlns="http://www.w3.org/2000/svg">
<rect x="8.61536" y="18.3077" width="8.61537" height="8.61537" rx="1.31429" transform="rotate(-180 8.61536 18.3077)" fill="#B542AC"/>
<rect x="8.61536" y="8.61536" width="8.61537" height="8.61537" rx="1.31429" transform="rotate(-180 8.61536 8.61536)" fill="#3945AF"/>
<rect x="18.3077" y="8.61536" width="8.61537" height="8.61537" rx="1.31429" transform="rotate(-180 18.3077 8.61536)" fill="#54B9E0"/>
<rect x="18.3077" y="18.3077" width="8.61537" height="8.61537" rx="1.31429" transform="rotate(-180 18.3077 18.3077)" fill="#BFE6FF"/>
<rect x="18.3077" y="28" width="8.61537" height="8.61537" rx="1.31429" transform="rotate(-180 18.3077 28)" fill="#F4F4F8"/>
<rect x="8.61536" y="28" width="8.61537" height="8.61537" rx="1.31429" transform="rotate(-180 8.61536 28)" fill="#E041AD"/>
<rect x="28" y="8.61536" width="8.61537" height="8.61537" rx="1.31429" transform="rotate(-180 28 8.61536)" fill="#3794CC"/>
<rect x="28" y="18.3077" width="8.61537" height="8.61537" rx="1.31429" transform="rotate(-180 28 18.3077)" fill="#B8ABCE"/>
<rect x="28" y="28" width="8.61537" height="8.61537" rx="1.31429" transform="rotate(-180 28 28)" fill="#E7B8D2"/>
</svg>
