<svg width="260" height="46" viewBox="0 0 260 46" fill="none" xmlns="http://www.w3.org/2000/svg">
<path d="M70.8795 15.3492V33.8677H66.6203V18.8413H58.2605V33.8677H54.0012V15.3492H70.8795Z" fill="black"/>
<path d="M83.5389 19.4233C84.8616 19.4233 86.0609 19.7319 87.1368 20.3492C88.2302 20.9489 89.0856 21.8042 89.7029 22.9153C90.3202 24.0088 90.6288 25.2875 90.6288 26.7513C90.6288 28.2152 90.3202 29.5026 89.7029 30.6138C89.0856 31.7072 88.2302 32.5626 87.1368 33.1799C86.0609 33.7795 84.8616 34.0794 83.5389 34.0794C81.7223 34.0794 80.2937 33.5062 79.2532 32.3598V39H75.1262V19.6349H79.068V21.2751C80.0909 20.0406 81.5812 19.4233 83.5389 19.4233ZM82.8246 30.6931C83.8828 30.6931 84.747 30.3404 85.4172 29.6349C86.105 28.9118 86.4489 27.9506 86.4489 26.7513C86.4489 25.552 86.105 24.5996 85.4172 23.8942C84.747 23.1711 83.8828 22.8095 82.8246 22.8095C81.7664 22.8095 80.8934 23.1711 80.2055 23.8942C79.5353 24.5996 79.2003 25.552 79.2003 26.7513C79.2003 27.9506 79.5353 28.9118 80.2055 29.6349C80.8934 30.3404 81.7664 30.6931 82.8246 30.6931Z" fill="black"/>
<path d="M93.5213 19.6349H97.6218V28.1005L104.553 19.6349H108.336V33.8677H104.236V25.4021L97.3308 33.8677H93.5213V19.6349Z" fill="black"/>
<path d="M112.303 19.6349H116.404V25.1905H122.594V19.6349H126.721V33.8677H122.594V28.5503H116.404V33.8677H112.303V19.6349Z" fill="black"/>
<path d="M142.63 23.0212H137.815V33.8677H133.714V23.0212H128.9V19.6349H142.63V23.0212Z" fill="black"/>
<path d="M143.963 24.7672H151.45V28.0741H143.963V24.7672Z" fill="black"/>
<path d="M174.065 30.3757V37.7037H170.097V33.8677H157.028V37.7037H153.06L153.086 30.3757H153.827C154.938 30.3404 155.723 29.5291 156.181 27.9418C156.64 26.3545 156.922 24.0882 157.028 21.1429L157.239 15.3492H171.472V30.3757H174.065ZM160.811 21.5397C160.723 23.7443 160.538 25.5961 160.255 27.0952C159.973 28.5767 159.541 29.6702 158.959 30.3757H167.239V18.8413H160.89L160.811 21.5397Z" fill="black"/>
<path d="M176.632 19.6349H180.733V28.1005L187.664 19.6349H191.447V33.8677H187.347V25.4021L180.442 33.8677H176.632V19.6349Z" fill="black"/>
<path d="M204.518 26.4603C205.365 26.7249 206.017 27.1305 206.476 27.6772C206.952 28.224 207.19 28.8765 207.19 29.6349C207.19 30.5344 206.881 31.328 206.264 32.0159C205.647 32.6861 204.8 33.2063 203.724 33.5767C202.649 33.9471 201.432 34.1323 200.074 34.1323C198.963 34.1323 197.869 34.0176 196.793 33.7884C195.717 33.5591 194.721 33.2152 193.804 32.7566L194.915 29.873C196.414 30.5961 198.072 30.9577 199.888 30.9577C200.858 30.9577 201.617 30.8166 202.164 30.5344C202.728 30.2346 203.01 29.8201 203.01 29.291C203.01 28.8325 202.816 28.4885 202.428 28.2593C202.04 28.0123 201.476 27.8889 200.735 27.8889H197.825V25.3228H200.365C201.088 25.3228 201.643 25.2081 202.031 24.9788C202.419 24.7496 202.613 24.4145 202.613 23.9735C202.613 23.515 202.366 23.1623 201.873 22.9153C201.396 22.6684 200.709 22.545 199.809 22.545C198.433 22.545 196.934 22.8713 195.312 23.5238L194.306 20.6667C196.282 19.8025 198.204 19.3704 200.074 19.3704C201.361 19.3704 202.508 19.5291 203.513 19.8466C204.536 20.164 205.338 20.6314 205.92 21.2487C206.502 21.8483 206.793 22.5538 206.793 23.3651C206.793 24.0353 206.59 24.6437 206.185 25.1905C205.779 25.7196 205.224 26.1429 204.518 26.4603Z" fill="black"/>
<path d="M215.721 19.4233C217.926 19.4233 219.619 19.9524 220.801 21.0106C221.982 22.0511 222.573 23.6296 222.573 25.746V33.8677H218.711V32.0952C217.935 33.418 216.488 34.0794 214.372 34.0794C213.279 34.0794 212.326 33.8942 211.515 33.5238C210.721 33.1534 210.113 32.642 209.689 31.9894C209.266 31.3369 209.055 30.5961 209.055 29.7672C209.055 28.4444 209.548 27.4039 210.536 26.6455C211.541 25.8871 213.085 25.5079 215.166 25.5079H218.446C218.446 24.6085 218.173 23.9206 217.626 23.4444C217.079 22.9506 216.259 22.7037 215.166 22.7037C214.407 22.7037 213.658 22.8272 212.917 23.0741C212.194 23.3034 211.577 23.6208 211.065 24.0265L209.584 21.1429C210.36 20.5961 211.286 20.1728 212.361 19.873C213.455 19.5732 214.575 19.4233 215.721 19.4233ZM215.404 31.3016C216.109 31.3016 216.735 31.1429 217.282 30.8254C217.829 30.4903 218.217 30.0053 218.446 29.3704V27.9153H215.615C213.922 27.9153 213.076 28.4709 213.076 29.582C213.076 30.1111 213.279 30.5344 213.684 30.8519C214.107 31.1517 214.681 31.3016 215.404 31.3016Z" fill="black"/>
<path d="M226.158 19.6349H230.259V28.1005L237.19 19.6349H240.973V33.8677H236.872V25.4021L229.968 33.8677H226.158V19.6349ZM233.301 18.1005C230.197 18.1005 228.636 16.7337 228.618 14H231.317C231.334 14.6173 231.502 15.1023 231.819 15.455C232.155 15.7901 232.64 15.9577 233.275 15.9577C233.909 15.9577 234.394 15.7901 234.73 15.455C235.082 15.1023 235.259 14.6173 235.259 14H238.01C237.992 16.7337 236.423 18.1005 233.301 18.1005Z" fill="black"/>
<path d="M244.94 19.6349H249.041V25.1905H255.231V19.6349H259.358V33.8677H255.231V28.5503H249.041V33.8677H244.94V19.6349Z" fill="black"/>
<rect x="10.4615" y="28.2307" width="10.4615" height="10.4615" rx="1.31429" transform="rotate(-180 10.4615 28.2307)" fill="#B542AC"/>
<rect x="10.4615" y="16.4615" width="10.4615" height="10.4615" rx="1.31429" transform="rotate(-180 10.4615 16.4615)" fill="#3945AF"/>
<rect x="22.2308" y="16.4615" width="10.4615" height="10.4615" rx="1.31429" transform="rotate(-180 22.2308 16.4615)" fill="#54B9E0"/>
<rect x="22.2308" y="28.2307" width="10.4615" height="10.4615" rx="1.31429" transform="rotate(-180 22.2308 28.2307)" fill="#BFE6FF"/>
<rect x="22.2308" y="40" width="10.4615" height="10.4615" rx="1.31429" transform="rotate(-180 22.2308 40)" fill="#F4F4F8"/>
<rect x="10.4615" y="40" width="10.4615" height="10.4615" rx="1.31429" transform="rotate(-180 10.4615 40)" fill="#E041AD"/>
<rect x="34" y="16.4615" width="10.4615" height="10.4615" rx="1.31429" transform="rotate(-180 34 16.4615)" fill="#3794CC"/>
<rect x="34" y="28.2307" width="10.4615" height="10.4615" rx="1.31429" transform="rotate(-180 34 28.2307)" fill="#B8ABCE"/>
<rect x="34" y="40" width="10.4615" height="10.4615" rx="1.31429" transform="rotate(-180 34 40)" fill="#E7B8D2"/>
</svg>
