<svg width="20" height="20" viewBox="0 0 20 20" fill="none" xmlns="http://www.w3.org/2000/svg">
<path fill-rule="evenodd" clip-rule="evenodd" d="M7.4302 19.58C7.47132 19.82 7.68716 20 7.94412 20H12.0554C12.3124 20 12.5282 19.82 12.5694 19.58L12.9497 16.93C12.9722 16.9213 12.9946 16.9125 13.0169 16.9036C13.1518 16.8497 13.2826 16.7919 13.4102 16.7305C13.4469 16.7129 13.4833 16.695 13.5194 16.6767C13.9263 16.4717 14.3004 16.2306 14.6646 15.966C14.672 15.9607 14.6793 15.9554 14.6867 15.95L17.246 16.95C17.4721 17.04 17.7496 16.95 17.873 16.73L19.9286 13.27C20.0622 13.05 20.0006 12.78 19.8053 12.63L17.6366 11L17.7085 10L17.6366 9L19.8053 7.37C20.0006 7.22 20.0622 6.95 19.9286 6.73L17.873 3.27C17.7496 3.05 17.4721 2.96 17.246 3.05L14.6867 4.05C14.6823 4.04678 14.6779 4.04357 14.6734 4.04035C14.374 3.82246 14.0679 3.62035 13.7426 3.44103C13.5084 3.31191 13.2641 3.19461 13.0052 3.09175C12.9867 3.08442 12.9682 3.07718 12.9497 3.07L12.5694 0.42C12.5282 0.18 12.3124 0 12.0554 0H7.94412C7.68716 0 7.47132 0.18 7.4302 0.42L7.04991 3.07C7.03105 3.07728 7.01227 3.08464 6.99357 3.09207C6.88526 3.13511 6.77953 3.18068 6.67601 3.22858C6.62115 3.25397 6.56691 3.28002 6.51325 3.30669C6.09026 3.51693 5.70294 3.76615 5.32612 4.04035C5.3217 4.04356 5.31729 4.04678 5.31288 4.05L2.75358 3.05C2.52746 2.96 2.24994 3.05 2.1266 3.27L0.0709427 6.73C0.00803495 6.83304 -0.0141423 6.95484 0.00855815 7.07263C0.0312586 7.19042 0.0972824 7.29613 0.194282 7.37L2.363 9L2.29106 10L2.363 10.97L0.194282 12.63C0.0972824 12.7039 0.0312586 12.8096 0.00855815 12.9274C-0.0141423 13.0452 0.00803495 13.167 0.0709427 13.27L2.1266 16.73C2.24994 16.95 2.52746 17.03 2.75358 16.95L5.31288 15.94C5.32297 15.9476 5.33308 15.9551 5.34319 15.9626C5.64546 16.1872 5.95471 16.3925 6.28392 16.573C6.50322 16.6933 6.73138 16.8026 6.97221 16.8994C6.97596 16.9009 6.97972 16.9024 6.98347 16.9039C7.00551 16.9127 7.02765 16.9214 7.04991 16.93L7.4302 19.58ZM9.21863 18H10.7809L11.1612 15.39C11.3915 15.3429 11.6166 15.2821 11.8357 15.2083C11.9567 15.1677 12.0758 15.1231 12.1929 15.0747C12.2902 15.0346 12.386 14.9919 12.4804 14.9467C12.5169 14.9292 12.5531 14.9113 12.5892 14.8931C12.8955 14.7384 13.1854 14.5572 13.4557 14.3531C13.4927 14.3252 13.5293 14.2969 13.5655 14.2681C13.7159 14.1487 13.8598 14.022 13.9967 13.8887C14.0859 13.8019 14.172 13.7123 14.255 13.62L16.7526 14.66L17.5235 13.36L15.3445 11.81C15.4548 11.4961 15.5355 11.1751 15.5866 10.8506C15.6276 10.5903 15.6496 10.3279 15.6525 10.0653C15.6528 10.0435 15.6529 10.0218 15.6528 10C15.6528 9.97872 15.6527 9.95744 15.6524 9.93616C15.6492 9.67926 15.6277 9.42253 15.5879 9.16784C15.5369 8.84055 15.4558 8.51661 15.3445 8.2L17.5132 6.65L16.7423 5.35L14.2653 6.39C14.1794 6.29332 14.0904 6.19989 13.9982 6.10982C13.8736 5.98794 13.7433 5.87221 13.608 5.76292C13.5584 5.7228 13.508 5.68355 13.457 5.64517C13.2298 5.47428 12.9896 5.32089 12.7386 5.18629C12.5463 5.08319 12.3478 4.9911 12.1438 4.91061C12.1175 4.9002 12.091 4.88998 12.0645 4.87996C11.7697 4.76869 11.4642 4.68147 11.1509 4.62L10.7707 2H9.22891L8.84861 4.61C8.60323 4.65974 8.36355 4.72491 8.13077 4.80442C8.02125 4.84182 7.91326 4.8824 7.80693 4.92604C7.72648 4.95906 7.64697 4.99383 7.56846 5.0303C7.52477 5.05059 7.48139 5.07142 7.43833 5.09276C7.12115 5.24997 6.82133 5.43529 6.54266 5.64531C6.49327 5.68253 6.44454 5.72053 6.3965 5.75929C6.25907 5.87015 6.12725 5.9872 6.00152 6.11C5.90908 6.20029 5.81994 6.29368 5.73429 6.39L3.25722 5.35L2.48634 6.65L4.65506 8.2C4.54407 8.51497 4.46304 8.83722 4.41198 9.16282C4.37192 9.41827 4.3503 9.67578 4.34713 9.93346C4.34685 9.95564 4.34671 9.97782 4.34671 10C4.34671 10.0215 4.34684 10.043 4.3471 10.0646C4.35014 10.3192 4.3712 10.5737 4.41028 10.8263C4.41216 10.8384 4.41409 10.8506 4.41606 10.8628C4.46731 11.1797 4.54698 11.4933 4.65506 11.8L2.47606 13.36L3.24694 14.66L5.74456 13.62C5.82755 13.7123 5.9137 13.8019 6.00284 13.8887C6.09015 13.9737 6.18034 14.056 6.27324 14.1355C6.36579 14.2146 6.46104 14.2909 6.55883 14.3641C6.78712 14.5351 7.02927 14.6895 7.28333 14.8253C7.44149 14.9098 7.60426 14.987 7.77118 15.0565C7.78338 15.0616 7.79561 15.0667 7.80786 15.0717C7.88306 15.1024 7.95909 15.1315 8.0359 15.159C8.29499 15.2517 8.56302 15.326 8.83833 15.38L9.21863 18ZM9.29614 13.941C9.52699 13.98 9.76232 14 9.99978 14C10.2379 14 10.474 13.9799 10.7055 13.9407C10.7514 13.9329 10.7972 13.9243 10.8427 13.915C11.6188 13.7568 12.3377 13.3822 12.9069 12.8284C12.9613 12.7756 13.0139 12.7214 13.0648 12.6659C13.075 12.6549 13.0851 12.6438 13.0951 12.6326C13.4423 12.2462 13.7075 11.801 13.8798 11.3228C13.8834 11.3128 13.8869 11.3028 13.8905 11.2927C14.0352 10.8804 14.1111 10.444 14.1111 10C14.1111 9.56176 14.0372 9.13093 13.8961 8.72329C13.8918 8.71088 13.8874 8.6985 13.883 8.68613C13.725 8.2443 13.4878 7.83048 13.18 7.46497C13.1533 7.43321 13.126 7.40182 13.0982 7.37081C13.0896 7.36126 13.081 7.35174 13.0724 7.34227C13.0191 7.28397 12.9639 7.22704 12.9069 7.17157C12.3388 6.61881 11.6215 6.24454 10.8471 6.08585C10.8027 6.07676 10.7582 6.06838 10.7134 6.06071C10.4794 6.02057 10.2407 6 9.99978 6C9.75818 6 9.51877 6.02069 9.28406 6.06106C9.24394 6.06796 9.20396 6.07544 9.16413 6.08348C8.51673 6.21425 7.90887 6.49558 7.3942 6.90586C7.28968 6.98917 7.18902 7.0778 7.09264 7.17157C7.03563 7.22704 6.98047 7.28397 6.92719 7.34226C6.91826 7.35204 6.90938 7.36185 6.90055 7.3717C6.55282 7.7598 6.28764 8.20705 6.11613 8.68737C6.11186 8.69933 6.10765 8.7113 6.1035 8.72329C5.96238 9.13093 5.88846 9.56176 5.88846 10C5.88846 10.444 5.96433 10.8804 6.10909 11.2927C6.11142 11.2994 6.11376 11.306 6.11613 11.3126C6.28828 11.7947 6.55478 12.2435 6.90442 12.6326C6.91174 12.6408 6.91909 12.6489 6.92648 12.657C6.97998 12.7155 7.03537 12.7727 7.09264 12.8284C7.65836 13.3788 8.37198 13.7523 9.14261 13.9121C9.19355 13.9227 9.24474 13.9323 9.29614 13.941ZM11.4534 8.58579C11.0678 8.21071 10.545 8 9.99978 8C9.45458 8 8.93172 8.21071 8.54621 8.58579C8.49802 8.63267 8.45247 8.68164 8.40965 8.73248C8.10994 9.08838 7.94412 9.53587 7.94412 10C7.94412 10.5304 8.1607 11.0391 8.54621 11.4142C8.93172 11.7893 9.45458 12 9.99978 12C10.545 12 11.0678 11.7893 11.4534 11.4142C11.8389 11.0391 12.0554 10.5304 12.0554 10C12.0554 9.46957 11.8389 8.96086 11.4534 8.58579Z" fill="#EC3A7A"/>
</svg>
