<?xml version="1.0" encoding="utf-8"?>
<!-- Generator: Adobe Illustrator 24.1.1, SVG Export Plug-In . SVG Version: 6.00 Build 0)  -->
<svg version="1.1" id="Layer_1" xmlns="http://www.w3.org/2000/svg" xmlns:xlink="http://www.w3.org/1999/xlink" x="0px" y="0px"
	 viewBox="0 0 512 512" style="enable-background:new 0 0 512 512;" xml:space="preserve">
<g>
	<path fill="#EC3A7A" d="M53.9,53.9h116.5l38.6,96.5L161.3,179c-12,7.2-16.5,22.5-10.3,35c31.5,63.8,83.2,115.5,147,147c12.5,6.2,27.8,1.7,35-10.3
		l28.6-47.7l96.5,38.6v116.5c-111.7,0-212.6-45.2-285.8-118.4C99.1,266.5,53.9,165.6,53.9,53.9L53.9,53.9
		c14.9,0,26.9-12.1,26.9-26.9C80.8,12.1,68.8,0,53.9,0C24.1,0,0,24.1,0,53.9C0,306.9,205.1,512,458.1,512
		c29.8,0,53.9-24.1,53.9-53.9V323.4c0-11-6.7-20.9-16.9-25l-134.7-53.9c-12.3-4.9-26.3-0.2-33.1,11.2L286.8,323l23.1,13.9l11.9-24.2
		c-53.2-26.2-96.3-69.3-122.5-122.5l-24.2,11.9l13.9,23.1l67.4-40.4c11.4-6.8,16.1-20.8,11.2-33.1L213.7,16.9
		c-4.1-10.2-14-16.9-25-16.9H53.9C39,0,26.9,12.1,26.9,26.9C26.9,41.8,39,53.9,53.9,53.9L53.9,53.9z"/>
</g>
</svg>
