<svg width="32" height="32" viewBox="0 0 32 32" fill="none" xmlns="http://www.w3.org/2000/svg">
<path fill-rule="evenodd" clip-rule="evenodd" d="M3.40154 4.37886C2.54526 5.92016 2 8.08333 2 10.5C2 12.9167 2.54526 15.0798 3.40154 16.6211C4.26723 18.1794 5.38332 19 6.5 19C7.61668 19 8.73277 18.1794 9.59846 16.6211C10.4547 15.0798 11 12.9167 11 10.5C11 8.08333 10.4547 5.92016 9.59846 4.37886C8.73277 2.82062 7.61668 2 6.5 2C5.38332 2 4.26723 2.82062 3.40154 4.37886ZM8.98355 2C9.55514 2.49366 10.0566 3.1444 10.4726 3.89322C11.426 5.60927 12 7.94611 12 10.5V30H29V10.5C29 9.35378 28.8745 8.22118 28.6321 7.16798C28.3896 6.11411 28.0365 5.16726 27.5985 4.37886C27.1598 3.58924 26.6516 2.98633 26.1146 2.58593C25.5806 2.18781 25.033 2 24.5 2H8.98355ZM11 15.9999C10.8406 16.3917 10.6643 16.7618 10.4726 17.1068C10.0566 17.8556 9.55514 18.5063 8.98355 19H11V15.9999ZM11 20V31H30V10.5C30 9.28242 29.8668 8.07438 29.6067 6.94372C29.3466 5.81372 28.9632 4.77627 28.4726 3.89322C27.9827 3.01139 27.3885 2.28842 26.7123 1.78424C26.033 1.27778 25.2802 1 24.5 1H6.5C4.85525 1 3.47134 2.1941 2.52739 3.89322C1.57402 5.60927 1 7.94611 1 10.5C1 13.0539 1.57402 15.3907 2.52739 17.1068C3.47134 18.8059 4.85525 20 6.5 20H11ZM5.34568 8.86218C5.55322 8.4471 5.93244 8 6.5 8C7.06756 8 7.44678 8.4471 7.65432 8.86218C7.87681 9.30717 8 9.88692 8 10.5C8 11.1131 7.87681 11.6928 7.65432 12.1378C7.44678 12.5529 7.06756 13 6.5 13C5.93244 13 5.55322 12.5529 5.34568 12.1378C5.12319 11.6928 5 11.1131 5 10.5C5 9.88692 5.12319 9.30717 5.34568 8.86218ZM6.24011 9.30939C6.10067 9.58826 6 10.0085 6 10.5C6 10.9915 6.10067 11.4117 6.24011 11.6906C6.30975 11.8299 6.37977 11.9155 6.43368 11.9611C6.45947 11.9829 6.47798 11.9926 6.48785 11.9966C6.49272 11.9986 6.49728 11.9997 6.49728 11.9997L6.5 12L6.50272 11.9997C6.50272 11.9997 6.50728 11.9986 6.51215 11.9966C6.52202 11.9926 6.54053 11.9829 6.56632 11.9611C6.62023 11.9155 6.69025 11.8299 6.75989 11.6906C6.89933 11.4117 7 10.9915 7 10.5C7 10.0085 6.89933 9.58826 6.75989 9.30939C6.69025 9.1701 6.62023 9.08451 6.56632 9.03891C6.54053 9.01708 6.52202 9.00742 6.51215 9.00338C6.50728 9.00139 6.50272 9.00032 6.50272 9.00032L6.5 9L6.49728 9.00032C6.49728 9.00032 6.49272 9.00139 6.48785 9.00338C6.47798 9.00742 6.45947 9.01708 6.43368 9.03891C6.37977 9.08451 6.30975 9.1701 6.24011 9.30939Z" fill="#000000"/>
<path fill-rule="evenodd" clip-rule="evenodd" d="M19.5761 22.6667H21.4239L20.5 20.0271L19.5761 22.6667ZM22.1239 24.6667L23.0561 27.3304L24.9439 26.6697L21.4439 16.6697H19.5561L16.0561 26.6697L17.9439 27.3304L18.8761 24.6667H22.1239Z" fill="#000000"/>
<path d="M11.5 9H16V13H11.5V9Z" fill="#000000"/>
</svg>
