<svg width="32" height="32" viewBox="0 0 32 32" fill="none" xmlns="http://www.w3.org/2000/svg">
<path fill-rule="evenodd" clip-rule="evenodd" d="M4.40154 4.37886C3.54526 5.92016 3 8.08333 3 10.5C3 12.9167 3.54526 15.0798 4.40154 16.6211C5.26723 18.1794 6.38332 19 7.5 19C8.61668 19 9.73277 18.1794 10.5985 16.6211C11.4547 15.0798 12 12.9167 12 10.5C12 8.08333 11.4547 5.92016 10.5985 4.37886C9.73277 2.82062 8.61668 2 7.5 2C6.38332 2 5.26723 2.82062 4.40154 4.37886ZM9.98355 2C10.5551 2.49366 11.0566 3.1444 11.4726 3.89322C12.426 5.60927 13 7.94611 13 10.5C13 13.0539 12.426 15.3907 11.4726 17.1068C11.0566 17.8556 10.5551 18.5063 9.98355 19H25.5C26.5683 19 27.7044 18.2305 28.5985 16.6211C29.4862 15.0232 30 12.8218 30 10.5C30 8.17818 29.4862 5.97681 28.5985 4.37886C27.7044 2.76953 26.5683 2 25.5 2H9.98355ZM7.5 1H25.5C27.0839 1 28.4913 2.12689 29.4726 3.89322C30.4602 5.67093 31 8.04792 31 10.5C31 12.9521 30.4602 15.3291 29.4726 17.1068C28.4913 18.8731 27.0839 20 25.5 20H21V31H2V10.5C2 7.94611 2.57402 5.60927 3.52739 3.89322C4.47134 2.1941 5.85525 1 7.5 1ZM3 15.9999V30H20V20H7.5C5.85525 20 4.47134 18.8059 3.52739 17.1068C3.33573 16.7618 3.15941 16.3917 3 15.9999ZM6.34568 8.86218C6.55322 8.4471 6.93244 8 7.5 8C8.06756 8 8.44678 8.4471 8.65432 8.86218C8.87681 9.30717 9 9.88692 9 10.5C9 11.1131 8.87681 11.6928 8.65432 12.1378C8.44678 12.5529 8.06756 13 7.5 13C6.93244 13 6.55322 12.5529 6.34568 12.1378C6.12319 11.6928 6 11.1131 6 10.5C6 9.88692 6.12319 9.30717 6.34568 8.86218ZM7.24011 9.30939C7.10067 9.58826 7 10.0085 7 10.5C7 10.9915 7.10067 11.4117 7.24011 11.6906C7.30975 11.8299 7.37977 11.9155 7.43368 11.9611C7.45947 11.9829 7.47798 11.9926 7.48785 11.9966C7.49272 11.9986 7.49728 11.9997 7.49728 11.9997L7.5 12L7.50272 11.9997C7.50272 11.9997 7.50728 11.9986 7.51215 11.9966C7.52202 11.9926 7.54053 11.9829 7.56632 11.9611C7.62023 11.9155 7.69025 11.8299 7.75989 11.6906C7.89933 11.4117 8 10.9915 8 10.5C8 10.0085 7.89933 9.58826 7.75989 9.30939C7.69025 9.1701 7.62023 9.08451 7.56632 9.03891C7.54053 9.01708 7.52202 9.00742 7.51215 9.00338C7.50728 9.00139 7.50272 9.00032 7.50272 9.00032L7.5 9L7.49728 9.00032C7.49728 9.00032 7.49272 9.00139 7.48785 9.00338C7.47798 9.00742 7.45947 9.01708 7.43368 9.03891C7.37977 9.08451 7.30975 9.1701 7.24011 9.30939Z" fill="#000000"/>
<path d="M17 21H20V24H17V21Z" fill="#000000"/>
<path fill-rule="evenodd" clip-rule="evenodd" d="M11.75 24.727V25.773L10.4426 25.25L11.75 24.727ZM13.75 26.573L15.6214 27.3215L14.8786 29.1785L7.37861 26.1785V24.3215L14.8786 21.3215L15.6214 23.1785L13.75 23.927V26.573Z" fill="#000000"/>
</svg>
